<?xml version="1.0" standalone="no"?><svg xmlns="http://www.w3.org/2000/svg" viewBox="0 0 1440 320"><path fill="#ffffff" fill-opacity="1" d="M0,64L18.5,96C36.9,128,74,192,111,192C147.7,192,185,128,222,90.7C258.5,53,295,43,332,53.3C369.2,64,406,96,443,106.7C480,117,517,107,554,122.7C590.8,139,628,181,665,192C701.5,203,738,181,775,160C812.3,139,849,117,886,101.3C923.1,85,960,75,997,69.3C1033.8,64,1071,64,1108,80C1144.6,96,1182,128,1218,133.3C1255.4,139,1292,117,1329,117.3C1366.2,117,1403,139,1422,149.3L1440,160L1440,320L1421.5,320C1403.1,320,1366,320,1329,320C1292.3,320,1255,320,1218,320C1181.5,320,1145,320,1108,320C1070.8,320,1034,320,997,320C960,320,923,320,886,320C849.2,320,812,320,775,320C738.5,320,702,320,665,320C627.7,320,591,320,554,320C516.9,320,480,320,443,320C406.2,320,369,320,332,320C295.4,320,258,320,222,320C184.6,320,148,320,111,320C73.8,320,37,320,18,320L0,320Z"></path></svg>