<?xml version="1.0" standalone="no"?><svg xmlns="http://www.w3.org/2000/svg" viewBox="0 0 1440 320"><path fill="#f8f9fa" fill-opacity="1" d="M0,64L12.6,96C25.3,128,51,192,76,192C101.1,192,126,128,152,128C176.8,128,202,192,227,208C252.6,224,278,192,303,170.7C328.4,149,354,139,379,133.3C404.2,128,429,128,455,133.3C480,139,505,149,531,149.3C555.8,149,581,139,606,144C631.6,149,657,171,682,192C707.4,213,733,235,758,245.3C783.2,256,808,256,834,229.3C858.9,203,884,149,909,154.7C934.7,160,960,224,985,256C1010.5,288,1036,288,1061,250.7C1086.3,213,1112,139,1137,122.7C1162.1,107,1187,149,1213,144C1237.9,139,1263,85,1288,101.3C1313.7,117,1339,203,1364,250.7C1389.5,299,1415,309,1427,314.7L1440,320L1440,0L1427.4,0C1414.7,0,1389,0,1364,0C1338.9,0,1314,0,1288,0C1263.2,0,1238,0,1213,0C1187.4,0,1162,0,1137,0C1111.6,0,1086,0,1061,0C1035.8,0,1011,0,985,0C960,0,935,0,909,0C884.2,0,859,0,834,0C808.4,0,783,0,758,0C732.6,0,707,0,682,0C656.8,0,632,0,606,0C581.1,0,556,0,531,0C505.3,0,480,0,455,0C429.5,0,404,0,379,0C353.7,0,328,0,303,0C277.9,0,253,0,227,0C202.1,0,177,0,152,0C126.3,0,101,0,76,0C50.5,0,25,0,13,0L0,0Z"></path></svg>